<mxfile host="app.diagrams.net" modified="2024-03-10T03:21:03.339Z" agent="Mozilla/5.0 (Windows NT 10.0; Win64; x64) AppleWebKit/537.36 (KHTML, like Gecko) Chrome/122.0.0.0 Safari/537.36" version="24.0.2" etag="39HCUOYOSwvJPO4q0Xj5" type="github">
  <diagram name="第 1 页" id="rAUHxn57iXwdZ1ix2MF3">
    <mxGraphModel>
      <root>
        <mxCell id="0" />
        <mxCell id="1" parent="0" />
      </root>
    </mxGraphModel>
  </diagram>
</mxfile>
